<?xml version="1.0" encoding="UTF-8" standalone="no"?>
<!-- Created with Inkscape (http://www.inkscape.org/) -->

<svg
   xmlns:dc="http://purl.org/dc/elements/1.1/"
   xmlns:cc="http://creativecommons.org/ns#"
   xmlns:rdf="http://www.w3.org/1999/02/22-rdf-syntax-ns#"
   xmlns:svg="http://www.w3.org/2000/svg"
   xmlns="http://www.w3.org/2000/svg"
   xmlns:xlink="http://www.w3.org/1999/xlink"
   xmlns:sodipodi="http://sodipodi.sourceforge.net/DTD/sodipodi-0.dtd"
   xmlns:inkscape="http://www.inkscape.org/namespaces/inkscape"
   width="2800"
   height="400"
   id="svg2"
   version="1.1"
   inkscape:version="0.48.2 r9819"
   sodipodi:docname="shine.svg"
   inkscape:export-filename="C:\Users\Aurélien\Documents\GameSwitch\resources\shine.png"
   inkscape:export-xdpi="9"
   inkscape:export-ydpi="9">
  <defs
     id="defs4">
    <linearGradient
       id="linearGradient3805">
      <stop
         style="stop-color:#ffffff;stop-opacity:0;"
         offset="0"
         id="stop3807" />
      <stop
         style="stop-color:#ffffff;stop-opacity:0"
         offset="1"
         id="stop3809" />
    </linearGradient>
    <linearGradient
       id="linearGradient3797">
      <stop
         style="stop-color:#ffffff;stop-opacity:0;"
         offset="0"
         id="stop3799" />
      <stop
         id="stop3825"
         offset="0.36293435"
         style="stop-color:#ffffff;stop-opacity:0.07718121;" />
      <stop
         style="stop-color:#ffffff;stop-opacity:1;"
         offset="1"
         id="stop3801" />
    </linearGradient>
    <radialGradient
       inkscape:collect="always"
       xlink:href="#linearGradient3797"
       id="radialGradient3811"
       cx="153.11375"
       cy="118.79688"
       fx="153.11375"
       fy="118.79688"
       r="191.5878"
       gradientTransform="matrix(1.1046104,-0.00559462,0.00527629,1.0417579,-16.644083,-4.1040945)"
       gradientUnits="userSpaceOnUse" />
    <filter
       inkscape:collect="always"
       id="filter3839"
       color-interpolation-filters="sRGB">
      <feGaussianBlur
         inkscape:collect="always"
         stdDeviation="6.7489453"
         id="feGaussianBlur3841" />
    </filter>
    <radialGradient
       inkscape:collect="always"
       xlink:href="#linearGradient3797"
       id="radialGradient3855"
       gradientUnits="userSpaceOnUse"
       gradientTransform="matrix(1.1046104,-0.00559462,0.00527629,1.0417579,-16.644083,-4.1040945)"
       cx="153.11375"
       cy="118.79688"
       fx="153.11375"
       fy="118.79688"
       r="191.5878" />
    <radialGradient
       inkscape:collect="always"
       xlink:href="#linearGradient3797"
       id="radialGradient3859"
       gradientUnits="userSpaceOnUse"
       gradientTransform="matrix(1.1046104,-0.00559462,0.00527629,1.0417579,-16.644083,-4.1040945)"
       cx="153.11375"
       cy="118.79688"
       fx="153.11375"
       fy="118.79688"
       r="191.5878" />
    <radialGradient
       inkscape:collect="always"
       xlink:href="#linearGradient3797"
       id="radialGradient3863"
       gradientUnits="userSpaceOnUse"
       gradientTransform="matrix(1.1046104,-0.00559462,0.00527629,1.0417579,-16.644083,-4.1040945)"
       cx="153.11375"
       cy="118.79688"
       fx="153.11375"
       fy="118.79688"
       r="191.5878" />
    <radialGradient
       inkscape:collect="always"
       xlink:href="#linearGradient3797"
       id="radialGradient3867"
       gradientUnits="userSpaceOnUse"
       gradientTransform="matrix(1.1046104,-0.00559462,0.00527629,1.0417579,-16.644083,-4.1040945)"
       cx="153.11375"
       cy="118.79688"
       fx="153.11375"
       fy="118.79688"
       r="191.5878" />
    <radialGradient
       inkscape:collect="always"
       xlink:href="#linearGradient3797"
       id="radialGradient3895"
       gradientUnits="userSpaceOnUse"
       gradientTransform="matrix(1.1046104,-0.00559462,0.00527629,1.0417579,-16.644083,-4.1040945)"
       cx="153.11375"
       cy="118.79688"
       fx="153.11375"
       fy="118.79688"
       r="191.5878" />
    <radialGradient
       inkscape:collect="always"
       xlink:href="#linearGradient3797"
       id="radialGradient3907"
       gradientUnits="userSpaceOnUse"
       gradientTransform="matrix(1.1046104,-0.00559462,0.00527629,1.0417579,-16.644083,-4.1040945)"
       cx="153.11375"
       cy="118.79688"
       fx="153.11375"
       fy="118.79688"
       r="191.5878" />
  </defs>
  <sodipodi:namedview
     id="base"
     pagecolor="#ffffff"
     bordercolor="#666666"
     borderopacity="1.0"
     inkscape:pageopacity="0.0"
     inkscape:pageshadow="2"
     inkscape:zoom="0.30730801"
     inkscape:cx="1367.6559"
     inkscape:cy="219.84748"
     inkscape:document-units="px"
     inkscape:current-layer="layer1"
     showgrid="false"
     inkscape:window-width="1366"
     inkscape:window-height="706"
     inkscape:window-x="-8"
     inkscape:window-y="-8"
     inkscape:window-maximized="1" />
  <metadata
     id="metadata7">
    <rdf:RDF>
      <cc:Work
         rdf:about="">
        <dc:format>image/svg+xml</dc:format>
        <dc:type
           rdf:resource="http://purl.org/dc/dcmitype/StillImage" />
        <dc:title></dc:title>
      </cc:Work>
    </rdf:RDF>
  </metadata>
  <g
     inkscape:label="Layer 1"
     inkscape:groupmode="layer"
     id="layer1"
     transform="translate(0,-652.3622)">
    <rect
       style="fill:#800000;fill-opacity:1;fill-rule:nonzero;stroke:none"
       id="rect3899"
       width="400.07129"
       height="400.07129"
       x="2400"
       y="172.29089" />
    <path
       sodipodi:type="star"
       style="fill:url(#radialGradient3907);fill-opacity:1;fill-rule:nonzero;stroke:none;filter:url(#filter3839)"
       id="path3905"
       sodipodi:sides="28"
       sodipodi:cx="151.48647"
       sodipodi:cy="110.65283"
       sodipodi:r1="196.65086"
       sodipodi:r2="45.372349"
       sodipodi:arg1="0.71039462"
       sodipodi:arg2="0.82259436"
       inkscape:flatsided="false"
       inkscape:rounded="0"
       inkscape:randomized="0.1"
       d="M 307.73362,242.88271 169.30659,125.86791 280.58557,258.04604 190.73207,130.41914 221.97539,279.53459 178.59572,149.42362 204.95923,323.16056 140.19592,141.47883 133.88857,319.80771 163.29034,146.9658 86.18201,285.66801 123.48715,141.26732 61.727004,290.88234 119.10151,131.44663 5.0518686,271.17416 135.93018,123.28027 -14.051097,232.21796 100.08644,148.98706 -46.085942,177.46717 97.275312,129.86151 -57.469899,156.70965 97.532532,97.659545 -47.767496,93.103094 116.04611,117.90824 -34.858215,55.116427 127.51623,90.507999 -9.7031326,33.896815 128.59505,100.07129 16.693653,-34.429323 132.06465,64.771897 21.569491,-47.74011 109.99151,84.518386 80.180307,-64.873836 122.12786,65.513899 117.38827,-90.132697 142.8214,52.218866 168.26649,-70.171609 176.76341,67.971728 200.38769,-74.093727 177.23643,73.670203 259.93235,-76.284599 181.62207,83.490895 294.98357,-35.336591 167.56132,85.512903 314.25577,11.580948 185.05115,102.19417 343.3859,24.157439 185.74201,103.16635 354.12219,69.212671 203.19105,117.27798 l 143.34837,-9.9904 -161.86258,24.71705 146.83303,34.44643 -155.5346,-48.16589 150.20667,73.80335 -154.05342,-37.89212 z"
       transform="matrix(0.94630037,0,0,0.94630037,2447.9275,747.94)" />
    <rect
       style="fill:#550000;fill-opacity:1;fill-rule:nonzero;stroke:none"
       id="rect3843"
       width="400.07129"
       height="400.07129"
       x="400"
       y="172.29089" />
    <path
       transform="matrix(0.94630037,0,0,0.94630037,463.92749,747.93997)"
       d="M 307.73362,242.88271 165.55649,149.62812 277.97973,248.96305 189.8386,163.31862 254.38746,274.60086 188.20766,154.6848 223.1523,287.48417 151.32553,138.35475 195.71543,306.40867 142.46937,173.707 133.88857,319.80771 163.89265,139.75387 100.13911,321.77163 133.84702,163.3794 71.915572,300.39884 120.46434,134.12695 27.602133,277.21354 117.62278,159.66239 19.327364,259.18981 129.06291,153.19542 -14.051097,232.21796 132.23488,122.82721 -35.687565,204.15821 113.98308,119.76134 -21.838066,169.55697 101.46567,102.79566 -51.641909,144.03007 118.14556,129.18399 -37.723473,82.696127 125.8118,112.89563 -34.858215,55.116427 90.413933,76.131168 -16.124092,20.766246 121.34805,88.667359 -0.46235959,1.1882037 135.8572,65.734827 -4.654589,-49.281982 120.72578,72.936065 27.893043,-52.618874 139.16675,61.026067 80.180307,-64.873836 155.72597,71.510317 111.47284,-82.2921 139.6986,66.235119 158.79243,-67.772796 144.86187,73.963618 189.27355,-76.25056 152.61426,47.465405 224.65298,-60.961175 160.81687,74.302703 259.93235,-76.284599 186.57759,53.49927 257.51112,-35.575213 167.34295,95.734681 297.08918,-30.218788 172.32797,77.825242 326.35399,19.983944 177.02629,90.844612 325.8459,46.912967 175.49457,103.59643 354.12219,69.212671 178.81556,91.938296 l 156.3713,34.676394 -148.14083,-25.06871 168.90235,54.59303 -158.76653,-28.85537 147.69214,62.13448 -150.9341,-49.75366 111.39168,77.65268 -99.39226,-76.27069 z"
       inkscape:randomized="0.1"
       inkscape:rounded="0"
       inkscape:flatsided="false"
       sodipodi:arg2="0.80015441"
       sodipodi:arg1="0.71039462"
       sodipodi:r2="45.372349"
       sodipodi:r1="196.65086"
       sodipodi:cy="110.65283"
       sodipodi:cx="151.48647"
       sodipodi:sides="35"
       id="path3857"
       style="fill:url(#radialGradient3859);fill-opacity:1;fill-rule:nonzero;stroke:none;filter:url(#filter3839)"
       sodipodi:type="star" />
    <rect
       y="172.29089"
       x="800"
       height="400.07129"
       width="400.07129"
       id="rect3845"
       style="fill:#800000;fill-opacity:1;fill-rule:nonzero;stroke:none" />
    <rect
       y="172.29089"
       x="1200"
       height="400.07129"
       width="400.07129"
       id="rect3847"
       style="fill:#550000;fill-opacity:1;fill-rule:nonzero;stroke:none" />
    <rect
       style="fill:#800000;fill-opacity:1;fill-rule:nonzero;stroke:none"
       id="rect3849"
       width="400.07129"
       height="400.07129"
       x="1600"
       y="172.29089" />
    <rect
       style="fill:#800000;fill-opacity:1;fill-rule:nonzero;stroke:none"
       id="rect3851"
       width="400.07129"
       height="400.07129"
       x="0"
       y="172.29089" />
    <path
       sodipodi:type="star"
       style="fill:url(#radialGradient3811);fill-opacity:1;fill-rule:nonzero;stroke:none;filter:url(#filter3839)"
       id="path3795"
       sodipodi:sides="29"
       sodipodi:cx="151.48647"
       sodipodi:cy="110.65283"
       sodipodi:r1="196.65086"
       sodipodi:r2="45.372349"
       sodipodi:arg1="0.71039462"
       sodipodi:arg2="0.8187254"
       inkscape:flatsided="false"
       inkscape:rounded="0"
       inkscape:randomized="0.1"
       d="M 307.73362,242.88271 194.8769,138.22801 263.40983,277.06933 155.16107,148.84167 215.38774,271.41568 171.92457,158.80006 180.41333,302.36631 151.39494,162.52367 169.89243,300.52197 151.5244,156.17128 95.110965,292.68838 135.32239,140.0827 85.835711,270.2934 140.67644,147.91542 37.436806,276.9271 129.90619,148.26531 17.525342,249.43577 109.59556,139.5416 -23.532505,206.29351 93.644479,137.44345 -33.206965,179.75021 88.442139,116.34134 -56.35112,127.24377 111.97565,119.07585 -25.466818,63.478065 111.44458,100.53805 -42.381862,17.314853 106.6034,91.803675 -28.420662,-12.455409 135.8572,65.734827 35.170399,-37.503578 123.93957,80.59691 55.219131,-40.848338 130.66887,70.006512 95.578282,-67.067983 153.44483,54.568641 123.01278,-76.807467 166.43768,55.479235 186.04229,-80.402432 147.69493,72.672359 225.5099,-62.764804 175.89212,66.902824 251.92285,-44.76054 172.36108,83.944043 288.98232,-15.621927 181.01854,94.75168 324.29333,-2.8131506 178.31569,84.739812 340.40588,44.320632 210.53205,88.174818 l 137.23017,8.353053 -143.46689,11.141199 130.43742,4.16981 -120.27027,9.18769 130.45165,38.79195 -134.98651,-20.5268 111.79314,49.26285 -122.85379,-59.23492 z"
       transform="matrix(0.94630037,0,0,0.94630037,63.927492,747.93997)" />
    <path
       transform="matrix(0.94630037,0,0,0.94630037,845.92749,747.93997)"
       d="M 307.73362,242.88271 188.28842,133.00513 267.81575,248.66181 160.67863,141.81691 274.71504,285.19644 162.40798,145.49153 258.81423,290.04375 188.20766,154.6848 l 47.41183,132.91263 -52.0816,-121.74025 1.42691,144.21388 -35.32099,-171.99243 3.92309,186.15903 -15.87763,-178.28217 -3.8007,173.85222 2.2307,-173.73674 L 128.56494,307.1717 139.26332,153.04646 91.283691,308.05921 121.85182,161.00049 64.688284,282.37502 120.46434,134.12695 44.672338,271.13892 118.92324,151.17544 11.640823,276.04827 126.30962,159.58939 28.026045,241.97517 119.03681,125.98566 -14.051097,232.21796 122.07106,131.50407 -12.088159,196.64442 104.7458,129.76346 -43.671,201.45481 120.63924,118.41226 -54.082601,146.28329 101.46567,102.79566 -30.838534,145.33983 103.04608,97.516842 -44.36664,125.68903 94.796013,104.03046 -56.355295,66.725044 90.666326,100.09254 -34.858215,55.116427 107.32331,105.95681 -40.171413,42.762973 127.4566,84.004241 -12.510993,28.49403 127.45756,67.068376 -0.07284318,-16.46426 135.8572,65.734826 12.049777,-23.412775 110.22024,78.726757 28.727109,-45.146984 110.84805,84.606915 37.743589,-71.247614 125.08986,51.334058 80.180307,-64.873836 142.13626,59.935352 111.12473,-81.868954 160.38738,73.380571 115.8256,-80.489579 139.02222,47.538415 160.50115,-92.468976 144.86187,73.963618 161.14764,-80.78613 165.71237,50.679029 210.8718,-89.527818 146.28675,76.158538 225.3179,-85.085112 183.08137,59.78495 259.93235,-76.284599 174.68802,69.500362 277.92186,-61.938056 188.96716,75.333411 267.54185,-28.579441 179.95468,73.809396 283.48338,-33.66435 172.32797,77.825242 303.13,14.383555 198.16177,106.13721 324.42883,14.893182 206.88089,80.550377 344.19442,55.505675 214.75151,101.03863 354.12219,69.212671 190.38724,101.11969 333.30583,111.54967 185.34225,128.36754 345.28211,111.11212 190.1758,129.4801 355.86812,168.62742 197.18185,127.28364 351.77319,172.25512 211.02357,131.5765 318.32303,204.79265 173.32315,149.55663 318.50651,212.19847 188.53705,136.9952 z"
       inkscape:randomized="0.1"
       inkscape:rounded="0"
       inkscape:flatsided="false"
       sodipodi:arg2="0.77450876"
       sodipodi:arg1="0.71039462"
       sodipodi:r2="45.372349"
       sodipodi:r1="196.65086"
       sodipodi:cy="110.65283"
       sodipodi:cx="151.48647"
       sodipodi:sides="49"
       id="path3853"
       style="fill:url(#radialGradient3855);fill-opacity:1;fill-rule:nonzero;stroke:none;filter:url(#filter3839)"
       sodipodi:type="star" />
    <path
       transform="matrix(0.94630037,0,0,0.94630037,1261.9275,747.93997)"
       d="M 307.73362,242.88271 191.36035,153.04157 278.83142,261.94911 172.50975,158.62682 235.55358,284.31055 168.40791,138.6463 213.11582,277.48333 175.81202,138.47139 210.83417,311.9223 159.22667,137.20642 160.14792,300.63146 168.7549,172.83368 123.46907,326.00546 127.89445,162.98682 95.156182,290.85909 123.15596,158.74229 71.915572,300.39884 133.42609,163.32844 48.771984,284.12032 135.61902,146.51392 5.0518686,271.17416 113.31323,134.53717 -8.5736834,239.06567 115.33347,142.37377 -21.672908,230.1771 106.99124,140.31357 -18.821458,194.11518 101.46819,121.40177 -29.51376,143.20374 124.67575,129.03521 -36.514051,134.71644 116.03816,127.66739 -37.723473,82.696127 103.59164,88.985979 -38.359564,67.629146 95.898288,108.08107 -12.197866,52.098139 113.97843,82.847703 -1.6905694,3.1567733 103.56305,102.40703 16.693653,-34.429323 133.75506,73.841939 21.203381,-30.466367 110.50756,74.401051 51.016117,-72.736264 114.60878,50.696566 86.919612,-80.975932 127.03118,50.934488 111.47284,-82.2921 143.61717,56.554288 124.30152,-67.880364 153.59196,55.839358 176.56637,-90.167893 172.82913,51.950705 189.94092,-82.405699 161.98162,53.108765 210.4136,-85.801101 167.29749,51.60908 235.67745,-51.369218 190.96836,79.135661 294.98357,-35.336591 190.21812,73.298834 293.67015,-34.967113 185.3901,72.563757 326.35399,19.983944 203.84091,74.288204 333.17938,48.692144 199.25539,93.535753 343.87231,64.628236 l -146.2012,35.009589 136.14226,2.245685 -146.36003,18.57244 165.27571,15.35753 -173.30337,-31.10177 173.29243,35.49112 -165.59971,-19.61086 161.06193,53.23221 -171.1525,-37.7783 139.06114,67.67216 -118.92908,-56.2122 z"
       inkscape:randomized="0.1"
       inkscape:rounded="0"
       inkscape:flatsided="false"
       sodipodi:arg2="0.78893444"
       sodipodi:arg1="0.71039462"
       sodipodi:r2="45.372349"
       sodipodi:r1="196.65086"
       sodipodi:cy="110.65283"
       sodipodi:cx="151.48647"
       sodipodi:sides="40"
       id="path3861"
       style="fill:url(#radialGradient3863);fill-opacity:1;fill-rule:nonzero;stroke:none;filter:url(#filter3839)"
       sodipodi:type="star" />
    <path
       sodipodi:type="star"
       style="fill:url(#radialGradient3867);fill-opacity:1;fill-rule:nonzero;stroke:none;filter:url(#filter3839)"
       id="path3865"
       sodipodi:sides="37"
       sodipodi:cx="151.48647"
       sodipodi:cy="110.65283"
       sodipodi:r1="196.65086"
       sodipodi:r2="45.372349"
       sodipodi:arg1="0.71039462"
       sodipodi:arg2="0.79530253"
       inkscape:flatsided="false"
       inkscape:rounded="0"
       inkscape:randomized="0.1"
       d="M 307.73362,242.88271 164.77507,149.4123 272.65241,243.64908 189.20616,166.62946 234.01409,267.58435 176.03967,170.10884 199.75491,304.83308 182.06293,153.96397 193.90248,320.66342 164.04064,155.32011 168.79106,308.6284 156.02838,162.85445 128.52391,292.22476 124.95523,149.66334 93.415427,280.08759 117.24536,157.22714 58.089563,294.13268 120.85923,145.42942 32.712296,277.5128 125.84887,132.66801 -3.5806723,223.68849 117.18867,151.51346 -5.1202743,222.20673 110.50835,150.85792 -41.991052,193.81824 112.26851,134.29982 -45.753956,156.25729 90.429474,103.49599 -56.229343,131.24452 107.73759,126.27702 -44.871319,97.295618 105.76511,92.48543 -24.548996,39.047809 128.84924,84.028769 -23.860183,27.779062 98.232841,85.662913 -15.006155,-21.933756 135.8572,65.734827 27.855157,-19.040498 130.2719,60.013608 39.149137,-34.359096 114.34432,72.853374 76.615813,-62.15606 150.67641,64.082186 114.06571,-81.509451 156.43164,52.730639 128.93523,-65.460858 170.09306,58.106184 177.85633,-101.672 168.69341,56.525896 218.12017,-88.252209 148.32416,82.277343 211.31893,-75.847455 175.3554,56.472694 245.91062,-60.685213 189.76378,62.920273 276.00117,-34.054812 191.89148,78.777548 294.10617,-22.918156 202.4233,104.9669 313.90632,38.007767 204.4875,88.90056 320.16744,47.372696 179.98939,80.998052 354.54455,71.442872 211.78783,89.05066 361.16074,123.82533 200.61303,105.76816 333.16845,138.07855 190.56464,120.96594 326.85277,192.96564 173.45068,140.87039 308.88581,193.53968 182.48924,146.89882 z"
       transform="matrix(0.94630037,0,0,0.94630037,1667.9275,747.94)" />
    <path
       sodipodi:type="star"
       style="fill:#ffffff;fill-opacity:1;stroke:none"
       id="path2987"
       sodipodi:sides="4"
       sodipodi:cx="105.71429"
       sodipodi:cy="180.93361"
       sodipodi:r1="157.16882"
       sodipodi:r2="15.716882"
       sodipodi:arg1="0"
       sodipodi:arg2="0.78539816"
       inkscape:flatsided="false"
       inkscape:rounded="0"
       inkscape:randomized="0"
       d="M 262.88311,180.93361 116.8278,192.04712 105.71429,338.10243 94.600773,192.04712 -51.454536,180.93361 94.600773,169.8201 105.71429,23.764786 116.8278,169.8201 z"
       transform="matrix(0.32957787,0,0,0.32957787,888.23348,710.0988)" />
    <path
       transform="matrix(0.32957787,0,0,0.32957787,468.23348,710.0988)"
       d="M 262.88311,180.93361 127.94131,203.16064 105.71429,338.10243 83.48726,203.16064 -51.454536,180.93361 83.487259,158.70658 105.71429,23.764786 127.94131,158.70658 z"
       inkscape:randomized="0"
       inkscape:rounded="0"
       inkscape:flatsided="false"
       sodipodi:arg2="0.78539816"
       sodipodi:arg1="0"
       sodipodi:r2="31.433764"
       sodipodi:r1="157.16882"
       sodipodi:cy="180.93361"
       sodipodi:cx="105.71429"
       sodipodi:sides="4"
       id="path3881"
       style="fill:#ffffff;fill-opacity:1;stroke:none"
       sodipodi:type="star" />
    <path
       sodipodi:type="star"
       style="fill:#ffffff;fill-opacity:1;stroke:none"
       id="path3883"
       sodipodi:sides="4"
       sodipodi:cx="105.71429"
       sodipodi:cy="180.93361"
       sodipodi:r1="157.16882"
       sodipodi:r2="31.433764"
       sodipodi:arg1="0"
       sodipodi:arg2="0.78539816"
       inkscape:flatsided="false"
       inkscape:rounded="0"
       inkscape:randomized="0"
       d="M 262.88311,180.93361 127.94131,203.16064 105.71429,338.10243 83.48726,203.16064 -51.454536,180.93361 83.487259,158.70658 105.71429,23.764786 127.94131,158.70658 z"
       transform="matrix(0.32957787,0,0,0.32957787,1040.8595,889.04443)" />
    <path
       transform="matrix(0.32957787,0,0,0.32957787,1440.8595,889.04443)"
       d="M 262.88311,180.93361 116.8278,192.04712 105.71429,338.10243 94.600773,192.04712 -51.454536,180.93361 94.600773,169.8201 105.71429,23.764786 116.8278,169.8201 z"
       inkscape:randomized="0"
       inkscape:rounded="0"
       inkscape:flatsided="false"
       sodipodi:arg2="0.78539816"
       sodipodi:arg1="0"
       sodipodi:r2="15.716882"
       sodipodi:r1="157.16882"
       sodipodi:cy="180.93361"
       sodipodi:cx="105.71429"
       sodipodi:sides="4"
       id="path3885"
       style="fill:#ffffff;fill-opacity:1;stroke:none"
       sodipodi:type="star" />
    <path
       sodipodi:type="star"
       style="fill:#ffffff;fill-opacity:1;stroke:none"
       id="path3887"
       sodipodi:sides="4"
       sodipodi:cx="105.71429"
       sodipodi:cy="180.93361"
       sodipodi:r1="157.16882"
       sodipodi:r2="31.433764"
       sodipodi:arg1="0"
       sodipodi:arg2="0.78539816"
       inkscape:flatsided="false"
       inkscape:rounded="0"
       inkscape:randomized="0"
       d="M 262.88311,180.93361 127.94131,203.16064 105.71429,338.10243 83.48726,203.16064 -51.454536,180.93361 83.487259,158.70658 105.71429,23.764786 127.94131,158.70658 z"
       transform="matrix(0.32957787,0,0,0.32957787,1712.8986,852.0484)" />
    <rect
       y="172.29089"
       x="2000"
       height="400.07129"
       width="400.07129"
       id="rect3889"
       style="fill:#550000;fill-opacity:1;fill-rule:nonzero;stroke:none" />
    <path
       transform="matrix(0.94630037,0,0,0.94630037,2047.9275,747.94)"
       d="M 307.73362,242.88271 197.14856,139.76532 265.13786,276.93444 154.92172,167.47247 217.55293,289.5519 151.32553,138.35475 154.31576,286.86282 155.31561,147.05733 130.14632,311.46921 146.57889,141.57315 71.915572,300.39884 146.0526,149.76289 29.068499,276.91873 115.75048,146.99697 -15.258094,235.30367 132.23488,122.82721 -8.5256917,174.39314 95.082144,138.05262 -24.392027,161.79452 116.65252,118.84205 -37.723473,82.696127 114.303,86.273464 -29.016775,30.351567 109.23933,80.038764 -0.59136649,-7.3259845 135.8572,65.734826 2.6130203,-24.394327 113.9122,78.39309 69.274494,-71.263949 123.77117,81.521179 111.47284,-82.2921 146.07194,60.484559 174.7059,-89.31083 158.62484,67.729563 189.72868,-87.164466 160.81687,74.302703 230.03353,-53.817731 168.9709,57.190594 274.52748,-36.321438 172.67392,66.664042 326.35399,19.983944 200.87384,84.258384 349.61549,72.572036 205.99904,102.55428 363.45202,88.021592 187.04603,101.54598 331.03773,147.56179 203.87279,130.53731 318.14535,196.91455 184.20997,132.44951 z"
       inkscape:randomized="0.1"
       inkscape:rounded="0"
       inkscape:flatsided="false"
       sodipodi:arg2="0.83605833"
       sodipodi:arg1="0.71039462"
       sodipodi:r2="45.372349"
       sodipodi:r1="196.65086"
       sodipodi:cy="110.65283"
       sodipodi:cx="151.48647"
       sodipodi:sides="25"
       id="path3891"
       style="fill:url(#radialGradient3895);fill-opacity:1;fill-rule:nonzero;stroke:none;filter:url(#filter3839)"
       sodipodi:type="star" />
    <path
       transform="matrix(0.32957787,0,0,0.32957787,2112.8986,852.0484)"
       d="M 262.88311,180.93361 116.8278,192.04712 105.71429,338.10243 94.600773,192.04712 -51.454536,180.93361 94.600773,169.8201 105.71429,23.764786 116.8278,169.8201 z"
       inkscape:randomized="0"
       inkscape:rounded="0"
       inkscape:flatsided="false"
       sodipodi:arg2="0.78539816"
       sodipodi:arg1="0"
       sodipodi:r2="15.716882"
       sodipodi:r1="157.16882"
       sodipodi:cy="180.93361"
       sodipodi:cx="105.71429"
       sodipodi:sides="4"
       id="path3893"
       style="fill:#ffffff;fill-opacity:1;stroke:none"
       sodipodi:type="star" />
    <path
       transform="matrix(0.32957787,0,0,0.32957787,2259.961,660.321)"
       d="M 262.88311,180.93361 127.94131,203.16064 105.71429,338.10243 83.48726,203.16064 -51.454536,180.93361 83.487259,158.70658 105.71429,23.764786 127.94131,158.70658 z"
       inkscape:randomized="0"
       inkscape:rounded="0"
       inkscape:flatsided="false"
       sodipodi:arg2="0.78539816"
       sodipodi:arg1="0"
       sodipodi:r2="31.433764"
       sodipodi:r1="157.16882"
       sodipodi:cy="180.93361"
       sodipodi:cx="105.71429"
       sodipodi:sides="4"
       id="path3897"
       style="fill:#ffffff;fill-opacity:1;stroke:none"
       sodipodi:type="star" />
    <path
       sodipodi:type="star"
       style="fill:#ffffff;fill-opacity:1;stroke:none"
       id="path3903"
       sodipodi:sides="4"
       sodipodi:cx="105.71429"
       sodipodi:cy="180.93361"
       sodipodi:r1="157.16882"
       sodipodi:r2="15.716882"
       sodipodi:arg1="0"
       sodipodi:arg2="0.78539816"
       inkscape:flatsided="false"
       inkscape:rounded="0"
       inkscape:randomized="0"
       d="M 262.88311,180.93361 116.8278,192.04712 105.71429,338.10243 94.600773,192.04712 -51.454536,180.93361 94.600773,169.8201 105.71429,23.764786 116.8278,169.8201 z"
       transform="matrix(0.32957787,0,0,0.32957787,2659.961,660.321)" />
  </g>
</svg>
